<svg version="1.1" id="Capa_1" xmlns="http://www.w3.org/2000/svg" x="0" y="0" viewBox="0 0 345 345" xml:space="preserve"><path d="M172.5 0c-82.71 0-150 67.29-150 150s67.29 150 150 150 150-67.29 150-150S255.21 0 172.5 0zm0 270c-66.169 0-120-53.832-120-120s53.831-120 120-120 120 53.832 120 120-53.832 120-120 120z"/><path d="M216.963 65h-76.926c-5.523 0-10 4.478-10 10v150c0 5.523 4.477 10 10 10h7.692c5.523 0 10-4.477 10-10v-62.886h49.616c5.523 0 10-4.478 10-10v-7.306c0-5.522-4.477-10-10-10h-49.616v-42.5h59.233c5.523 0 10-4.478 10-10V75c.001-5.522-4.476-10-9.999-10zm-11.465 250h-65.996c-8.284 0-15 6.716-15 15s6.716 15 15 15h65.996c8.284 0 15-6.716 15-15s-6.716-15-15-15z"/></svg>